<?xml version="1.0" encoding="utf-8"?>
<!-- Generator: Adobe Adobe Illustrator 24.2.0, SVG Export Plug-In . SVG Version: 6.00 Build 0)  -->
<svg version="1.1" id="Layer_1" xmlns="http://www.w3.org/2000/svg" xmlns:xlink="http://www.w3.org/1999/xlink" x="0px" y="0px"
	 viewBox="0 0 100 100" style="enable-background:new 0 0 100 100;" xml:space="preserve">
<style type="text/css">
	.st0{fill:url(#SVGID_1_);}
	.st1{fill:url(#SVGID_2_);}
	.st2{fill:url(#SVGID_3_);}
	.st3{fill:url(#SVGID_4_);}
	.st4{fill:url(#SVGID_5_);}
	.st5{fill:url(#SVGID_6_);}
	.st6{fill:url(#SVGID_7_);}
	.st7{fill:url(#SVGID_8_);}
</style>
<g>
	<g>
		
			<radialGradient id="SVGID_1_" cx="-75.6384" cy="-13.998" r="59.6176" gradientTransform="matrix(0.8831 0.0766 -0.0662 0.7625 87.5451 88.7456)" gradientUnits="userSpaceOnUse">
			<stop  offset="0" style="stop-color:#FF0000"/>
			<stop  offset="0.3219" style="stop-color:#DA004F"/>
			<stop  offset="1" style="stop-color:#8B00F5"/>
		</radialGradient>
		<path class="st0" d="M71.31,38.47c0.6,0.08,1.87,0.07,2.41,0.36c1.15,0.62-8.62,12.92,1.19,12.2c15.83-1.17-3.95,6.41-8.78,1.58
			c-1.85-1.85,3.77-10.17,3.16-10.32c-2.35-0.57-5.49,1.89-7.54,6.88c-2.65,6.46-2.14,15.15-7.65,20.67
			c-3.97,3.97-6.71,6.61-25.21,5.84c-1.12-0.05,8.79-9.24,9.89-8.87c8.72,2.95,13.61-12.7,16.47-17.42
			C61.39,39.27,70.02,38.29,71.31,38.47z"/>
		
			<radialGradient id="SVGID_2_" cx="-21.1348" cy="53.2936" r="66.0501" gradientTransform="matrix(0.7911 0 0 0.8789 38.924 25.4541)" gradientUnits="userSpaceOnUse">
			<stop  offset="0" style="stop-color:#FF0000"/>
			<stop  offset="4.928271e-03" style="stop-color:#FE0001"/>
			<stop  offset="0.3094" style="stop-color:#DA004E"/>
			<stop  offset="1" style="stop-color:#8B00F5"/>
		</radialGradient>
		<path class="st1" d="M38.37,67.31C29.59,78.1,17.51,82.08,7.6,74.68c-9.92-7.41-10.33-20.52-0.08-27.94
			c11.85-8.57,18.87,9.07,14.8,8.23c-6.68-1.38-12.26,7.98-3.78,9.73c5.54,1.14,11.54-3.11,17.34-8.53
			c5.52-5.16,17.7-22.06,17.7-22.06s4.8,1.14,4.53,1.37C58.13,35.49,48.82,54.46,38.37,67.31z M77.44,39.57
			c-9.93-1.18-11.46-1.71-23.85-5.45c-12.06-3.64-20.25,1.68-12.82,13.19c2.54,3.94-22.33,2.16-12.31-10.98
			c4.62-6.06,13.72-7.97,26.18-4.38c12.75,3.68,21.15,4.63,25.03,4.63c9.64,0,12.85-3.88,13.12-4.08c0.57-0.44,0.96,4.1-3.24,6.25
			C87.03,40.05,79.15,39.77,77.44,39.57z"/>
	</g>
	
		<radialGradient id="SVGID_3_" cx="105.2428" cy="15.0976" r="4.2097" gradientTransform="matrix(0.7507 0 0 0.7507 -15.2645 38.2909)" gradientUnits="userSpaceOnUse">
		<stop  offset="0" style="stop-color:#FF0000"/>
		<stop  offset="4.928271e-03" style="stop-color:#FE0001"/>
		<stop  offset="0.3094" style="stop-color:#DA004E"/>
		<stop  offset="1" style="stop-color:#8B00F5"/>
	</radialGradient>
	<path class="st2" d="M63.16,49.55c-1.19,0.59-2.3,1.42-3.62,1.61c1.3,0.03,2.41-0.8,3.56-1.3c1.65-0.75,3.12-1.33,4.83-1.78
		C66.27,48.25,64.65,48.8,63.16,49.55z"/>
	
		<radialGradient id="SVGID_4_" cx="114.971" cy="23.858" r="10.1299" gradientTransform="matrix(0.7507 0 0 0.7507 -15.2645 38.2909)" gradientUnits="userSpaceOnUse">
		<stop  offset="0" style="stop-color:#FF0000"/>
		<stop  offset="4.928271e-03" style="stop-color:#FE0001"/>
		<stop  offset="0.3094" style="stop-color:#DA004E"/>
		<stop  offset="1" style="stop-color:#8B00F5"/>
	</radialGradient>
	<path class="st3" d="M74.12,57.11c-2.69,0.2-6.17,0.06-8.27-1.81c-0.72-0.7-1.24-0.93-2.22-0.6c-1.1,0.38-2.16,0.88-3.21,1.38
		c0.62-0.24,1.22-0.46,1.83-0.67c0.53-0.17,1.07-0.38,1.63-0.4c0.59-0.06,1.05,0.48,1.45,0.91c2,2.14,6.7,2.15,9.42,1.69
		c2.28-0.36,5.34-1.62,6.92-2.51C79.28,56.13,76.74,56.87,74.12,57.11z"/>
	
		<radialGradient id="SVGID_5_" cx="61.9794" cy="44.7007" r="30.4675" gradientTransform="matrix(0.7507 0 0 0.7507 -15.2645 38.2909)" gradientUnits="userSpaceOnUse">
		<stop  offset="0" style="stop-color:#FF0000"/>
		<stop  offset="4.928271e-03" style="stop-color:#FE0001"/>
		<stop  offset="0.3094" style="stop-color:#DA004E"/>
		<stop  offset="1" style="stop-color:#8B00F5"/>
	</radialGradient>
	<path class="st4" d="M60.88,59c-0.11,1.8-0.36,3.59-0.74,5.36c-1.41,6.21-5.61,10.53-10.86,13.35c-2.64,1.33-5.25,2.15-8.15,2.83
		c-3.61,0.82-7.37,1.12-11.02,0.39c-0.54-0.1-1.1-0.18-1.64-0.01c-0.52,0.16-0.96,0.51-1.47,0.72c-1.26,0.6-2.58,1.11-3.77,1.51
		c-2.44,0.79-5.07,1.03-7.62,0.74c-2.67-0.37-5.4-1.65-7.73-3.17c-2.22-1.4-4.11-3.26-6.3-4.68c1.7,1.64,3.17,3.54,5.09,4.94
		c2.32,1.67,4.99,2.95,7.8,3.5c3.42,0.56,6.95-0.03,10.12-1.38c1.03-0.38,2.37-1.06,3.17-1.48c0.78-0.29,1.61-0.03,2.41,0.09
		c3.96,0.69,8.02,0.14,11.87-0.88c2.99-0.82,5.96-1.87,8.57-3.56c4.91-3.16,9.63-8.38,10.21-14.4C60.96,61.59,60.98,60.29,60.88,59z
		"/>
	<g>
		
			<radialGradient id="SVGID_6_" cx="44.5608" cy="19.261" r="19.7584" gradientTransform="matrix(0.7507 0 0 0.7507 -15.2645 38.2909)" gradientUnits="userSpaceOnUse">
			<stop  offset="0" style="stop-color:#FF0000"/>
			<stop  offset="4.928271e-03" style="stop-color:#FE0001"/>
			<stop  offset="0.3094" style="stop-color:#DA004E"/>
			<stop  offset="1" style="stop-color:#8B00F5"/>
		</radialGradient>
		<path class="st5" d="M35.84,53.26c0.11-0.1,0.07,0.11-0.05,0.24c-0.54,0.82-1.24,1.84-1.73,2.5c-2.54,3.36-7.55,7.36-12.88,7.2
			c-0.81-0.06-1.53-0.12-2.22-0.6c-1.44-1.03-1.03-2.48-0.42-2.85c0.66-0.55,2.08-1.04,3.41-1.07c0.74-0.05,1.51,0.12,2.22-0.14
			c0.97-0.35,1.73-1.18,2.19-2.09c0.53-1.13,0.51-2.43,0.36-3.65c-0.65-3.82-3.64-7.28-6.84-9.32c-2.85-1.77-6.34-2.19-9.6-1.59
			c-3.74,0.71-6.98,3.03-9.45,5.85c-0.15,0.17-0.29,0.34-0.43,0.52c0.19-0.22,0.4-0.46,0.58-0.65c2.21-2.31,4.83-4.13,8.21-4.95
			c3.3-0.71,6.73-0.42,9.67,1.27c2.86,1.67,5.41,4.45,6.65,7.54c0.7,1.8,1.02,4.28-0.03,5.9c-0.56,0.7-1.42,0.66-2.3,0.64
			c-1.57-0.05-3.21,0.31-4.46,1.31c-0.56,0.48-1.14,1.03-1.37,1.74c-0.27,0.98,0.4,1.96,1.25,2.39c0.54,0.28,1.15,0.35,1.75,0.41
			c2.66,0.15,5.31-0.77,7.55-2.16c2.73-1.65,5.17-3.84,6.9-6.54C34.93,54.98,36.41,52.67,35.84,53.26z"/>
		
			<radialGradient id="SVGID_7_" cx="68.0275" cy="19.9938" r="0.0531" gradientTransform="matrix(0.7507 0 0 0.7507 -15.2645 38.2909)" gradientUnits="userSpaceOnUse">
			<stop  offset="0" style="stop-color:#FF0000"/>
			<stop  offset="4.928271e-03" style="stop-color:#FE0001"/>
			<stop  offset="0.3094" style="stop-color:#DA004E"/>
			<stop  offset="1" style="stop-color:#8B00F5"/>
		</radialGradient>
		<path class="st6" d="M35.76,53.34c0.03-0.03,0.05-0.06,0.08-0.08C35.82,53.28,35.79,53.3,35.76,53.34z"/>
	</g>
	
		<radialGradient id="SVGID_8_" cx="102.5666" cy="0.1136" r="38.894" gradientTransform="matrix(0.7507 0 0 0.7507 -15.2645 38.2909)" gradientUnits="userSpaceOnUse">
		<stop  offset="0" style="stop-color:#FF0000"/>
		<stop  offset="4.928271e-03" style="stop-color:#FE0001"/>
		<stop  offset="0.3094" style="stop-color:#DA004E"/>
		<stop  offset="1" style="stop-color:#8B00F5"/>
	</radialGradient>
	<path class="st7" d="M95.06,29.17c-1.77,0.19-3.34,1.1-4.99,1.69c-2.62,1-5.54,1.97-8.51,2.09c-3.57,0.21-6.99-0.33-10.36-1.37
		c-3.94-1.15-7.86-2.37-11.71-3.78c-3.73-1.37-7.42-2.93-11.33-3.75c-5.28-1.17-11.04-0.99-15.97,1.41
		c-4.8,2.3-8.81,7.11-8.91,12.59C23.17,41.02,24.2,44,26,46.37c1.04,1.39,2.38,2.52,3.74,3.59c1.3,0.98,2.61,1.96,4.08,2.68
		c0.64,0.34,1.37,0.45,2.01,0.77c-0.57-0.43-1.27-0.67-1.85-1.11c-1.17-0.83-2.22-1.8-3.31-2.72c-1.89-1.59-3.83-3.2-5.02-5.41
		c-3.14-5.48-1.79-12.1,2.82-16.02c5.06-4.18,12.6-4.87,18.99-3.44c5.49,1.19,10.58,3.69,15.93,5.34c3.34,1.06,6.68,2.16,10.09,2.97
		c2.57,0.57,5.21,0.76,7.84,0.58c2.88-0.18,5.66-1.12,8.34-2.14c1.44-0.51,2.74-1.24,4.14-1.51c4.56-0.96,6.57,2.11,5.39,6.35
		c-1.04,3.26-3.6,4.02-7.01,5.3c-0.74,0.27-1.49,0.52-2.25,0.73c0.42-0.07,0.84-0.15,1.25-0.25c1.68-0.46,3.41-0.92,4.94-1.77
		c2.13-1.34,3.85-3.56,4.04-6.13C100.44,30.73,98.57,28.7,95.06,29.17z"/>
</g>
</svg>
